<?xml version="1.0" encoding="UTF-8"?>
<svg width="32" height="32" viewBox="0 0 32 32" fill="none" xmlns="http://www.w3.org/2000/svg">
    <path d="M16 2C8.268 2 2 8.268 2 16s6.268 14 14 14 14-6.268 14-14S23.732 2 16 2z" fill="#2c3e50"/>
    <path d="M22 12c-2.2 0-4 1.8-4 4 0 2.2 1.8 4 4 4s4-1.8 4-4c0-2.2-1.8-4-4-4zm-12 0c-2.2 0-4 1.8-4 4 0 2.2 1.8 4 4 4s4-1.8 4-4c0-2.2-1.8-4-4-4z" fill="#3498db"/>
    <path d="M16 8c-4.4 0-8 3.6-8 8s3.6 8 8 8 8-3.6 8-8-3.6-8-8-8zm0 12c-2.2 0-4-1.8-4-4s1.8-4 4-4 4 1.8 4 4-1.8 4-4 4z" fill="#e74c3c"/>
</svg> 